<?xml version="1.0" encoding="utf-8"?>
<svg version="1.1" id="layer" x="0px" y="0px" viewBox="26.6 246.2 506 136.535" style="enable-background:new 0 0 652 652;" xmlns="http://www.w3.org/2000/svg">
  <style type="text/css">
	.st0{fill:#8FBAE5;}
	.st1{fill:#00549E;}
</style>
  <path class="st0" d="M 365.114 326.823 L 371.186 326.823 C 377.005 326.823 380.126 329.774 380.126 335.678 C 380.126 342.593 376.584 345.291 370.427 345.291 L 365.114 345.291 L 365.114 326.823 Z M 352.212 381.47 L 365.114 381.47 L 365.114 354.4 L 372.03 354.4 C 377.258 354.4 379.45 357.435 379.704 362.495 L 380.041 374.809 C 380.126 377.338 380.378 379.784 381.644 381.555 L 395.643 381.555 L 395.643 381.048 C 393.197 379.784 392.86 376.327 392.775 369.58 C 392.607 356.002 391.257 351.195 382.487 350.014 L 382.487 349.846 C 389.739 348.328 393.197 342.593 393.197 334.075 C 393.197 323.112 386.704 317.546 376.162 317.546 L 352.295 317.546 L 352.295 381.47 Z"/>
  <path class="st0" d="M 161.618 317.377 L 161.618 362.074 C 161.618 379.193 171.568 382.735 182.11 382.735 C 192.652 382.735 202.604 378.434 202.604 362.074 L 202.604 317.377 L 189.701 317.377 L 189.701 362.074 C 189.701 368.484 188.183 373.206 182.195 373.206 C 176.208 373.206 174.69 368.484 174.69 362.074 L 174.69 317.377 L 161.618 317.377 Z"/>
  <polygon class="st0" points="205.724 317.377 205.724 381.47 217.53 381.47 217.53 336.521 217.699 336.521 233.554 381.47 248.227 381.47 248.227 317.377 236.421 317.377 236.421 361.23 236.252 361.23 220.652 317.377"/>
  <rect x="251.601" y="317.377" class="st0" width="12.903" height="64.093"/>
  <polygon class="st0" points="265.432 317.377 280.106 381.47 296.72 381.47 311.478 317.377 298.068 317.377 288.539 364.772 288.287 364.772 279.178 317.377"/>
  <polygon class="st0" points="312.574 317.377 312.574 381.47 349.344 381.47 349.344 370.845 325.562 370.845 325.562 353.641 347.067 353.641 347.067 343.014 325.562 343.014 325.562 327.919 348.416 327.919 348.416 317.377"/>
  <path class="st0" d="M 394.208 361.399 L 394.208 364.013 C 394.208 375.905 399.944 382.651 414.618 382.651 C 428.617 382.651 436.882 376.579 436.882 363.002 C 436.882 355.159 434.351 350.268 424.653 346.05 L 414.702 341.749 C 409.22 339.389 408.04 337.027 408.04 333.064 C 408.04 329.269 409.558 325.642 415.377 325.642 C 420.352 325.642 422.376 329.184 422.376 335.171 L 434.773 335.171 L 434.773 333.401 C 434.773 321.087 426.425 316.197 414.955 316.197 C 402.727 316.197 395.137 322.606 395.137 335.088 C 395.137 345.798 400.449 350.52 411.919 354.484 C 420.437 357.435 423.389 359.629 423.389 365.448 C 423.389 370.845 419.593 373.374 415.629 373.374 C 408.799 373.374 407.112 369.495 407.112 363.508 L 407.112 361.652 L 394.208 361.652 Z"/>
  <rect x="438.569" y="317.377" class="st0" width="12.903" height="64.093"/>
  <polygon class="st0" points="518.601 317.377 509.661 342.087 509.492 342.087 501.059 317.377 453.158 317.377 453.158 327.919 467.157 327.919 467.157 381.47 480.06 381.47 480.06 327.919 491.024 327.919 503.084 356.255 503.084 381.47 515.987 381.47 515.987 356.255 532.6 317.377"/>
  <path class="st1" d="M 48.021 311.474 L 47.177 311.474 L 26.6 311.474 L 26.6 304.221 L 26.6 247.55 L 26.6 247.044 L 47.177 247.044 L 47.177 247.044 L 61.683 247.044 C 71.212 247.044 79.392 253.2 82.091 261.38 C 84.537 268.971 82.429 277.151 76.863 283.053 C 77.622 285.078 78.296 286.68 79.055 288.452 C 80.573 292.077 82.007 295.619 83.61 299.161 L 88.67 311.389 L 88.501 311.389 L 66.995 311.389 C 66.995 311.389 66.827 310.884 66.658 310.63 C 65.815 308.692 65.056 306.667 64.129 304.811 L 58.9 292.414 C 56.791 287.439 54.768 282.632 52.659 277.656 C 55.273 277.572 57.213 278.078 59.659 276.897 C 61.429 276.054 64.044 273.861 64.129 269.813 C 64.044 267.79 63.453 266.271 62.189 264.585 C 60.839 263.067 58.9 261.971 56.369 261.971 C 56.369 261.971 48.021 261.971 48.021 261.971 L 48.021 311.474 Z"/>
  <path class="st1" d="M 271.757 247.128 L 271.757 311.474 L 255.059 311.474 L 250.336 311.474 L 250.336 285.247 L 248.312 285.247 L 235.493 285.247 L 235.325 285.247 L 235.325 311.474 C 231.446 311.474 227.228 311.389 223.349 311.474 L 213.905 311.474 L 213.905 262.054 L 198.977 262.054 L 198.977 263.572 L 198.977 268.212 L 198.977 289.379 L 198.977 311.474 L 198.809 311.474 L 177.557 311.474 L 177.557 284.825 L 177.557 283.812 L 177.557 262.054 L 162.461 262.054 L 162.461 285.415 L 162.461 311.558 L 140.366 311.558 C 136.487 302.282 132.438 292.921 128.728 283.644 C 128.306 281.705 127.885 279.765 127.294 277.825 L 127.294 311.474 L 105.199 311.474 C 100.813 301.269 96.597 291.318 92.211 280.946 C 90.693 277.404 89.429 274.451 87.911 270.741 L 87.657 270.235 L 84.284 262.224 L 79.392 250.838 C 78.972 249.573 78.296 248.392 77.874 247.044 L 99.971 247.044 C 104.524 258.092 109.078 268.971 113.801 279.765 L 113.97 280.018 C 113.801 278.752 113.379 277.151 113.211 275.969 L 113.211 256.742 C 113.294 253.706 113.211 250.164 113.211 247.044 L 135.306 247.044 C 135.559 247.718 135.728 248.14 135.98 248.646 C 138.594 254.718 141.04 260.789 143.654 266.862 L 149.473 280.018 C 149.305 278.669 149.052 277.319 148.884 275.969 L 148.884 247.044 L 150.654 247.044 L 165.666 247.044 L 220.061 247.044 L 235.493 247.044 L 235.493 251.091 L 235.493 270.319 L 236.506 270.319 L 250.505 270.319 L 250.505 247.044 L 261.637 247.044 L 271.757 247.044 Z"/>
  <path class="st0" d="M 348.248 247.128 L 332.224 247.128 L 318.73 297.896 L 305.322 247.128 L 289.298 247.128 L 272.263 311.558 L 285.756 311.558 L 288.707 297.981 L 305.828 297.981 L 308.779 311.558 L 328.598 311.558 L 331.55 297.981 L 348.668 297.981 L 351.621 311.558 L 365.114 311.558 L 348.248 247.128 Z M 290.985 287.271 L 297.226 258.344 L 297.394 258.344 L 303.635 287.271 L 290.985 287.271 Z M 333.91 287.271 L 340.151 258.344 L 340.32 258.344 L 346.561 287.271 L 333.91 287.271 Z"/>
  <path class="st0" d="M 403.991 269.054 C 403.991 259.693 402.642 246.2 384.173 246.2 C 364.777 246.2 362.332 260.03 362.332 279.511 C 362.332 298.992 364.777 312.824 384.173 312.824 C 401.125 312.824 404.582 300.847 404.582 287.017 L 391.679 287.017 C 391.679 300.847 388.306 303.293 383.583 303.293 C 378.017 303.293 375.318 299.751 375.318 280.439 C 375.318 262.308 376.836 255.729 383.414 255.729 C 389.233 255.729 391.173 259.778 391.173 269.139 L 403.991 269.139 Z"/>
  <polygon class="st0" points="407.028 311.474 420.015 311.474 420.015 282.97 435.195 282.97 435.195 311.474 448.182 311.474 448.182 247.128 435.195 247.128 435.195 271.753 420.015 271.753 420.015 247.128 407.028 247.128"/>
  <polygon class="st0" points="450.966 247.128 450.966 311.474 487.904 311.474 487.904 300.847 463.952 300.847 463.952 283.56 485.627 283.56 485.627 272.933 463.952 272.933 463.952 257.753 486.976 257.753 486.976 247.128"/>
  <polygon class="st0" points="489.843 247.128 489.843 311.474 501.734 311.474 501.734 266.44 501.903 266.44 517.757 311.474 532.6 311.474 532.6 247.128 520.625 247.128 520.625 291.234 520.456 291.234 504.771 247.128"/>
</svg>